<svg width="24" height="25" viewBox="0 0 24 25" fill="none" xmlns="http://www.w3.org/2000/svg">
<path fill-rule="evenodd" clip-rule="evenodd" d="M12.0298 0.499969C10.7568 0.499969 9.51249 0.872512 8.4542 1.57048C7.39591 2.26845 6.57126 3.26046 6.08457 4.42098C5.59788 5.5815 5.47104 6.85839 5.7201 8.09006C5.96915 9.32173 6.58291 10.4528 7.48371 11.3402C7.75836 11.6108 8.05593 11.855 8.37231 12.0707C8.02018 12.1809 7.67278 12.3072 7.33127 12.4495C5.85386 13.0651 4.5165 13.9667 3.39825 15.1009C2.27999 16.2352 1.40351 17.5791 0.820611 19.0532C0.23771 20.5273 -0.0397867 22.1017 0.00451941 23.6835C0.0172516 24.138 0.394386 24.5 0.855258 24.5H23.1446C23.6055 24.5 23.9826 24.138 23.9954 23.6835C24.0397 22.1017 23.7622 20.5273 23.1793 19.0532C22.5964 17.5791 21.7199 16.2352 20.6016 15.1009C19.4834 13.9667 18.146 13.0651 16.6686 12.4495C16.3403 12.3127 16.0065 12.1906 15.6684 12.0835C16.3428 11.6272 16.9263 11.0459 17.3843 10.3678C18.0901 9.32258 18.4658 8.0943 18.4638 6.83836C18.4612 5.15642 17.7822 3.54425 16.5759 2.35585C15.3695 1.16744 13.7345 0.499967 12.0298 0.499969ZM9.40012 2.96666C10.1784 2.45334 11.0936 2.17936 12.0298 2.17935C13.2835 2.17935 14.486 2.67025 15.3732 3.54426C16.2604 4.41827 16.7598 5.60394 16.7617 6.84092C16.7631 7.7646 16.4868 8.66794 15.9677 9.43664C15.4487 10.2053 14.7101 10.8048 13.8456 11.1593C12.9811 11.5138 12.0294 11.6072 11.1111 11.4279C10.1927 11.2486 9.34887 10.8045 8.68638 10.1518C8.02388 9.49917 7.57249 8.66731 7.38933 7.76148C7.20616 6.85565 7.29945 5.91657 7.65738 5.06306C8.01532 4.20955 8.62181 3.47997 9.40012 2.96666ZM7.99349 13.9966C9.26134 13.4683 10.6237 13.1961 11.9999 13.1961C13.3762 13.1961 14.7385 13.4683 16.0064 13.9966C17.2742 14.5249 18.4219 15.2986 19.3815 16.2719C20.3412 17.2453 21.0933 18.3985 21.5935 19.6636C21.9933 20.6745 22.2257 21.7404 22.2835 22.8206H1.71639C1.77421 21.7404 2.00658 20.6745 2.40633 19.6636C2.90655 18.3985 3.6587 17.2453 4.61834 16.2719C5.57798 15.2986 6.72564 14.5249 7.99349 13.9966Z" fill="#0018ED"/>
</svg>
